<?xml version="1.0" encoding="UTF-8"?>
<svg version="1.1" xmlns="http://www.w3.org/2000/svg" width="128" height="128">
<path d="M0 0 C1.2649102 -0.01270432 1.2649102 -0.01270432 2.55537415 -0.02566528 C5.32637876 -0.04894812 8.09682513 -0.0500594 10.86791992 -0.04882812 C12.80694294 -0.05593583 14.74596387 -0.06363572 16.6849823 -0.07189941 C20.74414925 -0.08532488 24.80312179 -0.08692207 28.86230469 -0.08105469 C34.04388815 -0.07516572 39.22453234 -0.10572614 44.40593433 -0.14617157 C48.40989641 -0.17212368 52.41363472 -0.17491908 56.4176693 -0.17127991 C58.32690475 -0.17296466 60.23615125 -0.18254461 62.14530373 -0.20042419 C83.11408686 -0.37517717 83.11408686 -0.37517717 91.40510559 7.40979004 C97.6965432 13.93253089 99.73896178 20.2881213 99.70581055 29.1340332 C99.71428009 29.97730667 99.72274963 30.82058014 99.73147583 31.68940735 C99.75475867 34.46041196 99.75586994 37.23085833 99.75463867 40.00195312 C99.76174638 41.94097614 99.76944627 43.87999707 99.77770996 45.8190155 C99.79113543 49.87818246 99.79273262 53.93715499 99.78686523 57.99633789 C99.78097626 63.17792135 99.81153668 68.35856554 99.85198212 73.53996754 C99.87793423 77.54392961 99.88072963 81.54766792 99.87709045 85.5517025 C99.87877521 87.46093795 99.88835515 89.37018446 99.90623474 91.27933693 C100.08098771 112.24812006 100.08098771 112.24812006 92.29602051 120.53913879 C85.77327965 126.83057641 79.41768925 128.87299499 70.57177734 128.83984375 C69.72850388 128.84831329 68.88523041 128.85678284 68.0164032 128.86550903 C65.24539858 128.88879187 62.47495222 128.88990315 59.70385742 128.88867188 C57.76483441 128.89577958 55.82581348 128.90347947 53.88679504 128.91174316 C49.82762809 128.92516863 45.76865556 128.92676582 41.70947266 128.92089844 C36.5278892 128.91500947 31.34724501 128.94556989 26.16584301 128.98601532 C22.16188093 129.01196743 18.15814263 129.01476283 14.15410805 129.01112366 C12.2448726 129.01280841 10.33562609 129.02238836 8.42647362 129.04026794 C-12.54230952 129.21502092 -12.54230952 129.21502092 -20.83332825 121.43005371 C-27.12476586 114.90731286 -29.16718444 108.55172245 -29.1340332 99.70581055 C-29.14250275 98.86253708 -29.15097229 98.01926361 -29.15969849 97.1504364 C-29.18298133 94.37943179 -29.1840926 91.60898542 -29.18286133 88.83789062 C-29.18996903 86.89886761 -29.19766892 84.95984668 -29.20593262 83.02082825 C-29.21935808 78.96166129 -29.22095527 74.90268876 -29.21508789 70.84350586 C-29.20919892 65.6619224 -29.23975934 60.48127821 -29.28020477 55.29987621 C-29.30615688 51.29591414 -29.30895228 47.29217583 -29.30531311 43.28814125 C-29.30699786 41.3789058 -29.31657781 39.46965929 -29.3344574 37.56050682 C-29.50921037 16.59172369 -29.50921037 16.59172369 -21.72424316 8.30070496 C-15.20150231 2.00926734 -8.8459119 -0.03315124 0 0 Z " fill="#81167D" transform="translate(28.714111328125,-0.419921875)"/>
<path d="M0 0 C0.87430664 -0.00630432 1.74861328 -0.01260864 2.64941406 -0.019104 C4.06818848 -0.01303131 4.06818848 -0.01303131 5.515625 -0.00683594 C6.48467773 -0.00874939 7.45373047 -0.01066284 8.45214844 -0.01263428 C10.50325785 -0.01399673 12.55437586 -0.01029612 14.60546875 -0.00195312 C17.75280039 0.00874547 20.8995612 -0.00184647 24.046875 -0.01464844 C26.0364596 -0.01332685 28.02604384 -0.01076448 30.015625 -0.00683594 C30.96147461 -0.0108844 31.90732422 -0.01493286 32.88183594 -0.019104 C33.75614258 -0.01279968 34.63044922 -0.00649536 35.53125 0 C36.68802246 0.00238678 36.68802246 0.00238678 37.86816406 0.00482178 C39.765625 0.25878906 39.765625 0.25878906 41.765625 2.25878906 C42.02632141 4.14279175 42.02632141 4.14279175 42.0402832 6.46142578 C42.05458122 7.76320267 42.05458122 7.76320267 42.06916809 9.09127808 C42.06825668 10.03085358 42.06734528 10.97042908 42.06640625 11.93847656 C42.07069138 12.90278595 42.0749765 13.86709534 42.07939148 14.86062622 C42.08514166 16.90333266 42.08563 18.94605959 42.08129883 20.98876953 C42.07814468 24.11428862 42.1015694 27.23885625 42.12695312 30.36425781 C42.12922662 32.34732953 42.12992938 34.3304038 42.12890625 36.31347656 C42.138116 37.2490036 42.14732574 38.18453064 42.15681458 39.14840698 C42.1109669 45.58272223 42.1109669 45.58272223 40.43896484 48.85595703 C37.79178964 51.0751967 35.44592445 50.64216726 32.078125 50.50878906 C30.89863281 50.47269531 29.71914062 50.43660156 28.50390625 50.39941406 C27.60027344 50.35300781 26.69664063 50.30660156 25.765625 50.25878906 C26.260625 54.21878906 26.260625 54.21878906 26.765625 58.25878906 C28.13847656 58.22398438 28.13847656 58.22398438 29.5390625 58.18847656 C30.72757813 58.17042969 31.91609375 58.15238281 33.140625 58.13378906 C34.32398438 58.11058594 35.50734375 58.08738281 36.7265625 58.06347656 C39.765625 58.25878906 39.765625 58.25878906 41.765625 60.25878906 C42.02441406 62.10644531 42.02441406 62.10644531 42.03125 64.32128906 C42.03511719 65.51625 42.03511719 65.51625 42.0390625 66.73535156 C42.03132813 67.56808594 42.02359375 68.40082031 42.015625 69.25878906 C42.02722656 70.50789063 42.02722656 70.50789063 42.0390625 71.78222656 C42.03648438 72.57886719 42.03390625 73.37550781 42.03125 74.19628906 C42.02899414 74.9271875 42.02673828 75.65808594 42.02441406 76.41113281 C41.765625 78.25878906 41.765625 78.25878906 39.765625 80.25878906 C36.83203125 80.55957031 36.83203125 80.55957031 33.328125 80.57128906 C31.59755859 80.59642578 31.59755859 80.59642578 29.83203125 80.62207031 C26.765625 80.25878906 26.765625 80.25878906 24.8671875 79.25097656 C23.08309155 76.02442006 23.45614119 72.65260854 23.578125 69.07128906 C23.59842773 67.9469043 23.59842773 67.9469043 23.61914062 66.79980469 C23.65443961 64.95249139 23.70824583 63.1055484 23.765625 61.25878906 C20.795625 61.25878906 17.825625 61.25878906 14.765625 61.25878906 C14.78882812 62.39058594 14.81203125 63.52238281 14.8359375 64.68847656 C14.85469401 66.17024081 14.87289434 67.65201218 14.890625 69.13378906 C14.90738281 69.88015625 14.92414063 70.62652344 14.94140625 71.39550781 C14.9590209 73.35073368 14.86882689 75.30620928 14.765625 77.25878906 C12.13838676 79.8860273 10.22350827 79.51994877 6.64453125 79.53222656 C5.85949219 79.52449219 5.07445313 79.51675781 4.265625 79.50878906 C3.08806641 79.52039063 3.08806641 79.52039063 1.88671875 79.53222656 C-3.98106713 79.51209694 -3.98106713 79.51209694 -6.234375 77.25878906 C-6.43248583 74.86060537 -6.50722118 72.57791545 -6.49316406 70.17871094 C-6.4966687 69.45011368 -6.50017334 68.72151642 -6.50378418 67.97084045 C-6.51260508 65.55631046 -6.5067512 63.14207217 -6.5 60.72753906 C-6.50134655 59.05366967 -6.503287 57.37980066 -6.50579834 55.70593262 C-6.50875008 52.19535606 -6.50445038 48.68488117 -6.49511719 45.17431641 C-6.48372259 40.66805682 -6.49028179 36.16203545 -6.50226212 31.65578461 C-6.50947938 28.19861039 -6.50719341 24.74149291 -6.50200653 21.28431702 C-6.50066966 19.62248202 -6.50231905 17.96064191 -6.50696564 16.29881287 C-6.51202873 13.97869159 -6.50432398 11.65895939 -6.49316406 9.33886719 C-6.49721252 8.64789444 -6.50126099 7.95692169 -6.50543213 7.24501038 C-6.45704758 1.83211896 -5.49928647 0.01134673 0 0 Z " fill="#482546" transform="translate(70.234375,22.7412109375)"/>
<path d="M0 0 C1.8871875 0.00773437 1.8871875 0.00773437 3.8125 0.015625 C5.070625 0.01046875 6.32875 0.0053125 7.625 0 C10.8125 0.265625 10.8125 0.265625 12.8125 2.265625 C13.05300903 4.67007446 13.05300903 4.67007446 13.03955078 7.72509766 C13.03939972 8.86612946 13.03924866 10.00716125 13.03909302 11.18276978 C13.02877045 12.41925262 13.01844788 13.65573547 13.0078125 14.9296875 C13.0049826 16.19203217 13.00215271 17.45437683 12.99923706 18.75497437 C12.98992131 22.11209444 12.97194835 25.46894412 12.9498291 28.82598877 C12.9293755 32.25115622 12.9202364 35.67635159 12.91015625 39.1015625 C12.88806458 45.82299171 12.85456377 52.54429273 12.8125 59.265625 C13.40788574 59.25515137 14.00327148 59.24467773 14.61669922 59.23388672 C17.30692343 59.19238551 19.99708037 59.16631796 22.6875 59.140625 C23.62464844 59.12386719 24.56179687 59.10710937 25.52734375 59.08984375 C26.42324219 59.08339844 27.31914063 59.07695313 28.2421875 59.0703125 C29.06960449 59.05983887 29.89702148 59.04936523 30.74951172 59.03857422 C32.8125 59.265625 32.8125 59.265625 34.8125 61.265625 C35.01102102 63.97485301 35.09089477 66.55865679 35.0625 69.265625 C35.07410156 70.37164062 35.07410156 70.37164062 35.0859375 71.5 C35.0658196 77.0123054 35.0658196 77.0123054 32.8125 79.265625 C30.11114677 79.46536233 27.51452789 79.54544073 24.8125 79.53125 C24.02101563 79.53316345 23.22953125 79.5350769 22.4140625 79.53704834 C20.7395801 79.53841018 19.06508715 79.53471382 17.390625 79.52636719 C14.82267619 79.5156674 12.25542697 79.52626225 9.6875 79.5390625 C8.06249845 79.5377409 6.43749734 79.53517851 4.8125 79.53125 C4.04164062 79.53529846 3.27078125 79.53934692 2.4765625 79.54351807 C-2.95757868 79.49554632 -2.95757868 79.49554632 -5.1875 77.265625 C-5.38561083 74.86744131 -5.46034618 72.58475139 -5.44628906 70.18554688 C-5.4497937 69.45694962 -5.45329834 68.72835236 -5.45690918 67.97767639 C-5.46573008 65.5631464 -5.4598762 63.1489081 -5.453125 60.734375 C-5.45447155 59.06050561 -5.456412 57.3866366 -5.45892334 55.71276855 C-5.46187508 52.20219199 -5.45757538 48.6917171 -5.44824219 45.18115234 C-5.43684759 40.67489276 -5.44340679 36.16887139 -5.45538712 31.66262054 C-5.46260438 28.20544633 -5.46031841 24.74832885 -5.45513153 21.29115295 C-5.45379466 19.62931795 -5.45544405 17.96747785 -5.46009064 16.3056488 C-5.46515373 13.98552753 -5.45744898 11.66579533 -5.44628906 9.34570312 C-5.45033752 8.65473038 -5.45438599 7.96375763 -5.45855713 7.25184631 C-5.4156259 2.44903062 -5.24032569 0.43669381 0 0 Z " fill="#482646" transform="translate(21.1875,22.734375)"/>
<path d="M0 0 C2.97 0 5.94 0 9 0 C9 3.3 9 6.6 9 10 C6.03 10 3.06 10 0 10 C0 6.7 0 3.4 0 0 Z " fill="#82167E" transform="translate(85,44)"/>
</svg>
